<svg width="1920" height="329" viewBox="0 0 1920 329" fill="none" xmlns="http://www.w3.org/2000/svg">
<g clip-path="url(#clip0)" filter="url(#filter0_d)">
<path d="M1920 137L1856 131.7C1792 126 1664 116 1536 99.7005C1408 84.0004 1280 62.0004 1152 78.3004C1024 94.0004 896 148 768 147.7C640 148 512 94.0004 384 94.3004C256 94.0003 128 148 64 174.3L0 201L1.67852e-05 9.00032L64 9.00033C128 9.00033 256 9.00034 384 9.00035C512 9.00037 640 9.00038 768 9.00039C896 9.0004 1024 9.00041 1152 9.00042C1280 9.00043 1408 9.00044 1536 9.00045C1664 9.00047 1792 9.00048 1856 9.00048L1920 9.00049L1920 137Z" fill="white"/>
</g>
<defs>
<filter id="filter0_d" x="-15" y="0.000244141" width="1950" height="350" filterUnits="userSpaceOnUse" color-interpolation-filters="sRGB">
<feFlood flood-opacity="0" result="BackgroundImageFix"/>
<feColorMatrix in="SourceAlpha" type="matrix" values="0 0 0 0 0 0 0 0 0 0 0 0 0 0 0 0 0 0 127 0"/>
<feOffset dy="6"/>
<feGaussianBlur stdDeviation="7.5"/>
<feColorMatrix type="matrix" values="0 0 0 0 0.968627 0 0 0 0 0.811608 0 0 0 0 0.666667 0 0 0 0.5 0"/>
<feBlend mode="normal" in2="BackgroundImageFix" result="effect1_dropShadow"/>
<feBlend mode="normal" in="SourceGraphic" in2="effect1_dropShadow" result="shape"/>
</filter>
<clipPath id="clip0">
<rect width="1920" height="320" fill="white" transform="translate(1920 329) rotate(-180)"/>
</clipPath>
</defs>
</svg>
