<svg id="Layer_3" enable-background="new 0 0 64 64" height="512" viewBox="0 0 64 64" width="512" xmlns="http://www.w3.org/2000/svg"><g><path d="m9 30c-2.209 0-4 1.791-4 4v3h2l1-.375v5.375h8v-5.375l1 .375h2v-3c0-2.209-1.791-4-4-4z" fill="#4472b0"/><path d="m16.814 30.454c-.547-.281-1.157-.454-1.814-.454h-6c-2.209 0-4 1.791-4 4v3h2l1-.375v2.998c4.528-1.119 8.014-4.699 8.814-9.169z" fill="#698ec0"/><path d="m49 26c-2.209 0-4 1.791-4 4v3h2l1-.375v5.375h8v-5.375l1 .375h2v-3c0-2.209-1.791-4-4-4z" fill="#4472b0"/><path d="m8 42h8v12h-8z" fill="#c1c8d1"/><g><path d="m11 45h2v9h-2z" fill="#88929f"/></g><path d="m48 38h8v12h-8z" fill="#c1c8d1"/><g><path d="m51 41h2v9h-2z" fill="#88929f"/></g><path d="m36 28v-5l7-7-3-3-5 5h-6l-5-5-3 3 7 7v5z" fill="#4472b0"/><path d="m28 28h8v16h-8z" fill="#c1c8d1"/><path d="m2 54h20v8h-20z" fill="#f2c351"/><path d="m42 50h20v12h-20z" fill="#e47c6f"/><path d="m22 44h20v18h-20z" fill="#78b75b"/><path d="m52 24c-1.657 0-3-1.343-3-3v-2c0-1.657 1.343-3 3-3 1.657 0 3 1.343 3 3v2c0 1.657-1.343 3-3 3z" fill="#f9d296"/><path d="m12 28c-1.657 0-3-1.343-3-3v-2c0-1.657 1.343-3 3-3 1.657 0 3 1.343 3 3v2c0 1.657-1.343 3-3 3z" fill="#f9d296"/><g><path d="m31 33h2v11h-2z" fill="#88929f"/></g><path d="m32 16c-1.657 0-3-1.343-3-3v-2c0-1.657 1.343-3 3-3 1.657 0 3 1.343 3 3v2c0 1.657-1.343 3-3 3z" fill="#f9d296"/><path d="m10 6.801c1.271-.636 2.207-1.788 2.569-3.162l.431-1.639.431 1.639c.362 1.374 1.297 2.526 2.568 3.162h.001l-.121.061c-1.201.6-2.105 1.663-2.506 2.945l-.373 1.193-.373-1.194c-.401-1.281-1.305-2.344-2.506-2.945z" fill="#f2c351"/><path d="m48 8.801c1.271-.636 2.207-1.788 2.569-3.162l.431-1.639.431 1.639c.362 1.374 1.297 2.526 2.568 3.162h.001l-.121.061c-1.201.6-2.105 1.663-2.506 2.945l-.373 1.193-.373-1.194c-.401-1.281-1.305-2.344-2.506-2.945z" fill="#f2c351"/><g fill="#698ec0"><path d="m28 25.758c3.907-.915 7.083-4.453 8.372-9.129l-1.372 1.371h-6l-5-5-3 3 7 7z"/><path d="m56.814 26.454c-.547-.281-1.157-.454-1.814-.454h-6c-2.209 0-4 1.791-4 4v3h2l1-.375v2.998c4.528-1.119 8.014-4.699 8.814-9.169z"/></g></g></svg>