<svg width="1920" height="328" viewBox="0 0 1920 328" fill="none" xmlns="http://www.w3.org/2000/svg">
<g filter="url(#filter0_d)">
<path d="M0 224L32 213.3C64 203 128 181 192 176C256 171 320 181 384 186.7C448 192 512 192 576 181.3C640 171 704 149 768 133.3C832 117 896 107 960 138.7C1024 171 1088 245 1152 245.3C1216 245 1280 171 1344 170.7C1408 171 1472 245 1536 256C1600 267 1664 213 1728 208C1792 203 1856 245 1888 266.7L1920 288V0H1888C1856 0 1792 0 1728 0C1664 0 1600 0 1536 0C1472 0 1408 0 1344 0C1280 0 1216 0 1152 0C1088 0 1024 0 960 0C896 0 832 0 768 0C704 0 640 0 576 0C512 0 448 0 384 0C320 0 256 0 192 0C128 0 64 0 32 0H0V224Z" fill="white"/>
</g>
<defs>
<filter id="filter0_d" x="-20" y="0" width="1960" height="360" filterUnits="userSpaceOnUse" color-interpolation-filters="sRGB">
<feFlood flood-opacity="0" result="BackgroundImageFix"/>
<feColorMatrix in="SourceAlpha" type="matrix" values="0 0 0 0 0 0 0 0 0 0 0 0 0 0 0 0 0 0 127 0"/>
<feOffset dy="20"/>
<feGaussianBlur stdDeviation="10"/>
<feColorMatrix type="matrix" values="0 0 0 0 0.666667 0 0 0 0 0.847059 0 0 0 0 0.968627 0 0 0 0.5 0"/>
<feBlend mode="normal" in2="BackgroundImageFix" result="effect1_dropShadow"/>
<feBlend mode="normal" in="SourceGraphic" in2="effect1_dropShadow" result="shape"/>
</filter>
</defs>
</svg>
